<svg xmlns="http://www.w3.org/2000/svg" width="205" height="24" fill="none">
  <g clip-path="url(#a)">
    <mask id="b" width="205" height="24" x="0" y="0" maskUnits="userSpaceOnUse" style="mask-type:luminance">
      <path fill="#fff" d="M204.505 0H0v24h204.505V0Z"/>
    </mask>
    <g fill="#202122" mask="url(#b)">
      <path d="M28.6461 5.1366c-5.0886-1.0581-7.7435 2.0297-7.7435 2.0297s-3.1359 3.1455-2.4818 8.3783c.6541 5.2329 4.5788 6.5411 4.5788 6.5411s4.1843 2.4914 10.8601-.6541v-4.3671s-2.2221 1.8757-6.8008 1.8757c0 0-3.1455 0-3.9247-3.6649h11.0333v-3.3764s.1635-5.5887-5.5118-6.7623m-5.3676 6.3391s.7696-2.6164 3.261-2.6164c2.4913 0 3.1358 2.6164 3.1358 2.6164h-6.3968ZM10.9366 5.4638s-.9427-.0578-2.1932 0c-1.9623.077-3.915.1443-5.6272 1.7122C1.6925 8.4746-.366 11.341.7306 16.949c.2309 1.1928.7022 2.3279 1.4237 3.2994.8657 1.164 2.2701 2.376 4.4344 2.5684 0 0 2.7511.5194 4.4441-.7888v.5194h4.5114V1.7988h-4.6076v3.665Zm.0289 12.6204c-2.376 1.1832-3.9247.6926-4.8385 0-.6637-.5002-1.0773-1.2505-1.1928-2.0778-.1635-1.212-.3174-3.0204.3367-4.723 1.087-2.8184 5.6946-2.097 5.6946-2.097v8.8978ZM47.4323 5.1462c-3.0878-.327-5.2137.6926-5.2137.6926v-.4425h-4.6268v17.1415h4.7134V9.8404c.6541-.7888 2.8762-.7888 2.8762-.7888 2.8761 0 2.6164 2.8762 2.6164 2.8762v10.6581h4.5788V10.8793c0-1.568-.4906-2.7319-1.0966-3.5784-.9042-1.2409-2.3183-2.0104-3.8477-2.1643M60.8217 1.8662H56.166V17.007c0 3.0878.7407 3.9439 1.2505 4.4729.2982.3175.6541.5676 1.0485.7503 2.9243 1.3564 5.3291.481 7.5126-.0096v-4.0401s-1.0485.3079-3.2705.5772c-2.222.2597-1.9623-2.097-1.9623-2.097V9.3307c.6541-.1346 5.2328.2117 5.2328.2117V5.4349h-5.1655V1.8662h.0096ZM81.0996 13.0533c-.5194-.3655-1.7314-.7407-2.703-.9908a16.6635 16.6635 0 0 0-1.9527-.3751c-1.6256-.202-2.1547-.7311-2.1547-.7311-.731-.9523.0481-1.491.8946-1.6352.7407-.1347 1.3948-.1347 2.1066-.0866 2.9243.1731 5.1078 1.3852 5.1078 1.3852V6.5122c-2.8761-1.5679-5.8869-1.4428-5.8869-1.4428-3.4245-.0866-5.3195 1.4813-6.1948 2.5106-.404.481-.6734 1.058-.7984 1.6737-.8658 4.1652 1.3659 5.0116 2.2797 5.5599.6541.3944 2.097.6542 4.8385 1.3083 2.7511.6541 1.5679 2.0392 1.5679 2.0392s-.2597.6541-3.0108.5195c-2.7511-.1347-5.6272-1.4814-5.6272-1.4814v4.2229s2.7511 2.097 7.2817 1.5198c3.7419-.481 4.9924-2.0008 5.3195-2.5202.0673-.0962.125-.202.202-.2886.2212-.279.7118-1.1062.808-3.0205.1347-2.4817-1.1736-3.4052-2.097-4.0593M96.2592 18.1707c-.6445.7888-2.7896.7119-2.7896.7119-2.7511.1346-2.6549-2.8089-2.6549-2.8089V5.406h-4.5403v11.7162c0 .2213.0096.4425.0289.6445.2308 3.2032 2.2028 5.0405 5.406 5.1463 2.7799.0962 4.6365-.7407 4.6365-.7407v.4425h4.5882V5.4638h-4.6748V18.1706ZM117.96 21.1719l-1.837-6.1563h-.991l-1.837 6.1563-1.25-6.1563h-1.241l1.875 8.1187h1.078l1.827-6.2333 1.838 6.2333h1.106l1.828-8.1187h-1.232l-1.164 6.1563ZM125.704 14.91c-.577-.1636-1.193-.1732-1.77 0-1.212.3463-3.174 1.5487-2.53 5.608 0 0 .529 3.0493 3.665 2.8761 3.598-.1923 3.222-4.396 3.222-4.396s.154-3.2994-2.587-4.0881Zm-.606 7.3875c-2.232.279-2.501-2.145-2.501-2.145-.5-3.2898 1.01-4.0594 1.741-4.2421.221-.0577.452-.0577.673-.0193 2.001.3367 2.068 2.4818 2.088 3.1263.038 1.6449-.491 3.107-2.001 3.2898M131.024 15.2176v-.2597h-1.145v8.1764h1.202v-6.7431s.616-.4425 1.924-.4136c.279 0 .558.0577.818.1635.086.0385.173.0769.211.1154v-1.2409s-1.827-.4617-3.01.1924M166.884 15.2176v-.2597h-1.145v8.1764h1.203v-6.7431s.615-.4425 1.924-.4136c.278 0 .557.0577.817.1635.087.0385.173.0769.212.1154v-1.2409s-1.828-.4617-3.011.1924M136.708 13.0532h-1.164v10.081h1.164v-10.081ZM143.663 14.7848s-4.464-.2885-4.983 2.5972c-.519 2.8762.25 4.9924 1.308 5.4926 2.222 1.0485 3.675 0 3.675 0v.2597h1.221V13.063h-1.221v1.7218Zm-.039 6.9259s-3.896 1.9527-3.896-2.501c0 0-.192-2.9435 2.425-3.2032h1.471v5.7042ZM154.878 19.1904c-.452-.3078-.971-.4809-1.51-.5579-.731-.0962-2.029-.3751-2.116-1.1254-.135-1.0485.519-1.3083.519-1.3083 1.703-.9138 3.665.5099 3.665.5099v-1.289c-1.702-1.0485-3.79-.3944-3.79-.3944s-1.308.2597-1.568 1.9527c-.211 1.3948.635 1.9142.943 2.0585l.231.1058c.25.1251.856.3944 1.837.5868.568.1154.914.279 1.126.4232.202.1347.327.356.365.5964.01.0962.02.1732.029.2501.01.4425-.279.8273-.702.962-1.866.5867-3.819-.7792-3.819-.7792v1.4236c.808.5387 2.145.6542 2.905.6734.548.0096 1.097-.1058 1.578-.3655.529-.2886 1.106-.7792 1.269-1.6065.202-1.0292-.327-1.6929-.952-2.1162M203.1 19.1904c-.452-.3078-.971-.4809-1.51-.5579-.731-.0962-2.03-.3751-2.116-1.1254-.135-1.0485.519-1.3083.519-1.3083 1.703-.9138 3.665.5099 3.665.5099v-1.289c-1.703-1.0485-3.79-.3944-3.79-.3944s-1.308.2597-1.568 1.9527c-.211 1.3948.635 1.9142.943 2.0585l.231.1058c.25.1251.856.3944 1.837.5868.568.1154.914.279 1.125.4232.202.1347.327.356.366.5964.01.0962.019.1732.029.2501.009.4425-.279.8273-.702.962-1.867.5867-3.819-.7792-3.819-.7792v1.4236c.808.5387 2.145.6542 2.905.6734.548.0096 1.096-.1058 1.577-.3655.529-.2886 1.107-.7792 1.27-1.6065.202-1.0292-.327-1.6929-.952-2.1162M193.52 14.8137c-.924.0577-1.616.3271-2.126.6637-.876.5676-1.433 1.5295-1.501 2.5684-.077 1.2216.068 2.1355.25 2.7607.25.8465.828 1.5776 1.616 2.0008 2.213 1.1832 4.887-.1539 4.887-.1539v-1.3563s-1.443 1.2409-3.53.8465c-2.097-.3944-2.097-2.9339-2.097-2.9339h5.887v-.6541c0-.3751-.097-1.0004-.173-1.3659-.222-1.0581-1.27-2.501-3.223-2.3664m2.212 3.4149h-4.694s-.009-1.2602 1.087-1.9816c.472-.3078 1.049-.4232 1.616-.3655.481.0481 1.087.1924 1.462.6156.655.7407.52 1.7315.52 1.7315M174.146 21.5663l-2.116-6.5507h-1.414l2.828 8.1187h1.26l2.934-8.1187h-1.289l-2.203 6.5507ZM180.697 12.6589h-1.318v1.3083h1.318v-1.3083ZM180.697 15.0156h-1.318v8.1187h1.318v-8.1187ZM183.641 15.718l-.125.1058c-.568.5098-.924 1.1928-1.087 1.9238-.366 1.6449-.106 4.1363 1.395 4.9828 2.597 1.4717 4.838-.1443 4.838-.1443v-1.2986c-1.116.7792-2.039.9619-2.732.9234-.827-.0481-1.558-.5386-1.943-1.2697-.452-.8561-.644-2.7415.096-3.9054 1.501-2.3567 4.444-.1924 4.444-.1924l.135.1347v-1.4525c-.587-.3944-1.347-.5772-1.962-.6541-1.097-.1347-2.213.1443-3.069.8465M160.805 14.8137c-.924.0577-1.616.3271-2.126.6637-.866.5676-1.433 1.5295-1.501 2.5684-.077 1.2216.068 2.1355.25 2.7607.251.8465.828 1.5776 1.617 2.0008 2.212 1.1832 4.886-.1539 4.886-.1539v-1.3563s-1.443 1.2409-3.53.8465c-2.097-.3944-2.097-2.9339-2.097-2.9339h5.887v-.6541c0-.3751-.096-1.0004-.173-1.3659-.222-1.0581-1.27-2.501-3.223-2.3664m2.213 3.4149h-4.695s-.009-1.2602 1.087-1.9816c.472-.3078 1.049-.4232 1.616-.3655.481.0481 1.087.1924 1.463.6156.654.7407.519 1.7315.519 1.7315"/>
    </g>
  </g>
  <defs>
    <clipPath id="a">
      <path fill="#fff" d="M0 0h204.505v24H0z"/>
    </clipPath>
  </defs>
</svg>
